<svg xmlns="http://www.w3.org/2000/svg" xmlns:xlink="http://www.w3.org/1999/xlink" viewBox="0 0 451.56 442.6"><defs><style>.cls-1{fill:#1a8fa7;}.cls-2{fill:url(#linear-gradient);}.cls-3{fill:url(#linear-gradient-2);}.cls-4{fill:#036fa7;}.cls-5{fill:#fff;}.cls-6{fill:#1e3d2e;}.cls-7{fill:#2c719d;}.cls-8{fill:#276e9a;}.cls-9{fill:#17302c;}.cls-10{fill:#437a41;}</style><linearGradient id="linear-gradient" x1="0.57" y1="130.16" x2="444.45" y2="130.16" gradientUnits="userSpaceOnUse"><stop offset="0" stop-color="#447e46"/><stop offset="0.26" stop-color="#427a40"/><stop offset="1" stop-color="#20462d"/></linearGradient><linearGradient id="linear-gradient-2" x1="435.11" y1="511.07" x2="208.84" y2="257.99" gradientUnits="userSpaceOnUse"><stop offset="0" stop-color="#15647f"/><stop offset="0.26" stop-color="#164456"/><stop offset="1" stop-color="#214130"/></linearGradient></defs><title>Asset 1</title><g id="Layer_2" data-name="Layer 2"><g id="Design"><path class="cls-1" d="M284.44,267.46l2.2-.83c44.5-16.87,109.85-41.62,160.2-32.73.25-4.17.4-8.37.4-12.6,0-5-.23-9.94-.58-14.86-49.43-9.45-115.34,15.41-160,32.28l-2.19.82c-34.59,13.05-83.9,29.19-134,29.19a212.6,212.6,0,0,1-25.07-1.44A368.26,368.26,0,0,1,.77,228.83a211.83,211.83,0,0,0,2.55,26.48,360.2,360.2,0,0,0,125.24,39.58C185.5,301.68,244.8,282.49,284.44,267.46Z"/><path class="cls-2" d="M282.69,231.45l2.19-.82c44.85-16.93,108.9-42.1,159.57-33C434.44,86.68,340.59,0,223.91,0,100.56,0,.57,97.2.57,217.1c0,.88.06,1.75.07,2.63a363.36,363.36,0,0,0,125.27,39.19C183.21,265.71,242.81,246.49,282.69,231.45Z"/><path class="cls-3" d="M446.53,242.34c-8.86,112-105.13,200.26-222.62,200.26a229.3,229.3,0,0,1-58.48-7.52c-6.92-1.85-13.75-4-20.41-6.43a224.79,224.79,0,0,1-59.48-32.78c-3.76-2.9-7.47-5.92-11.06-9.12-1.21-1-2.38-2.05-3.55-3.15,0,0,0,0,0,0-.69-.59-1.34-1.22-2-1.89A215.08,215.08,0,0,1,4.32,264.86,364.87,364.87,0,0,0,128,303.26a216.4,216.4,0,0,0,25,1.43c49.84,0,98.81-16.09,133.22-29.16l2.16-.8C332.54,258,397.47,233.39,446.53,242.34Z"/><path class="cls-4" d="M70.89,383.56c-.69-.59-1.34-1.22-2-1.89A16.21,16.21,0,0,1,70.89,383.56Z"/><path class="cls-5" d="M383.07,315.83c-25.16,24.83-47.89,51.76-73.92,75.88-28.18,26.14-62.07,39.5-101,42.36-14.27,1.05-28.49,1.38-42.75,1-6.92-1.85-13.75-4-20.41-6.43a224.79,224.79,0,0,1-59.48-32.78c-3.76-2.9-7.47-5.92-11.06-9.12,1.47.72,2.81,0,4.88-2.1,11.76-11.85,23-24.11,36.4-34.41,22-16.93,46.38-21.77,73.31-14.33a22.82,22.82,0,0,0,13.1-.08,221.63,221.63,0,0,1,38.3-7.73c10.37-1.1,20.7-1.52,30.86,1.13,2.64.72,4-.38,5.58-1.89,7.61-7,15.21-13.95,24.2-19.41,5.71-3.45,11.72-6.05,18.5-6.85,4.67-.55,9.21-.09,13,2.23,3.19,1.93,5.4,1.34,8.3-.42a44.64,44.64,0,0,1,17.37-6.1c10.85-1.51,18.94,2.65,25.2,10.68C385.75,310.32,385.75,313.22,383.07,315.83Z"/><path class="cls-6" d="M363.88,317.72C342.57,339.27,323,362.3,300.6,382.93a158.11,158.11,0,0,1-48.5,30.76,58.48,58.48,0,0,1-6.19,1.76c-1.9,1-4.06,1.14-6.13,1.47a117.44,117.44,0,0,1-17.6,3.53,24.08,24.08,0,0,1-7.13,1.31c-1.34,0-2.64,0-4,.08a9.44,9.44,0,0,1-4.45.67c-7.61.42-15.26,1.14-22.87,1.18-8.55,0-17.11-.34-25.63-.92a13.52,13.52,0,0,0-10.81,3.86c-.77.72-1.51,1.39-2.29,2a224.79,224.79,0,0,1-59.48-32.78,5.77,5.77,0,0,1,.7-.8c11.8-11.59,22.78-23.9,36-34.2a85.84,85.84,0,0,1,27.15-14.33,20.1,20.1,0,0,1,7.13-1.47,96.87,96.87,0,0,1,34.75,3.87c4.71,1.38,9.51,0,14.14-1.26,4.06-1,8.08-2.15,12.1-3.24a121.9,121.9,0,0,1,19-3.86l6.74-.63a9.17,9.17,0,0,1,4.37-.72c4.45.09,8.9,0,13.27.34,8.08.71,15.17,3.32,19.67,10.25,1.42,3.28-1.73,2.48-3,2.73-13.27,2.82-26.54,5.46-39.81,8.2a2.7,2.7,0,0,1-.56.08,9,9,0,0,0-3.85,1.13c-5,1-9.94,2-14.91,3-3.33.63-5.84,2.14-5.75,5.71.09,3.78,1.77,6.43,6.18,6.72,11.11-2.68,22.35-4.74,33.54-6.93,12.71-2.77,25.46-5.5,38.17-8.32,2.86-.63,4.8-2.73,6.75-4.58,9.07-8.78,18-17.69,27.06-26.39a123.21,123.21,0,0,1,23-18,90.63,90.63,0,0,1,8.25-3.95,7.74,7.74,0,0,1,4.41-.93c3.11.59,7.52-.16,8.65,3C369.63,313.85,365.82,315.79,363.88,317.72Z"/><path class="cls-6" d="M323.39,313.82c-.05,1.57-1.32,2.07-2.19,2.83-9.06,7.88-17.53,16.32-25.73,25-2,2.1-3.07,2.74-5.07-.06-4.15-5.83-4.36-5.77,1.08-10.59,7.51-6.63,15-13.34,24.85-16.83A10.53,10.53,0,0,1,323.39,313.82Z"/><path class="cls-7" d="M233.3,362c10.17-3.33,20.83-4.6,31.22-7.05,4.21-1,8.49-1.76,12.73-2.68,1.46-.32,3.22-.38,3.31-2.43,1.44,3.3-1.65,2.93-3.24,3.26C262.66,356.11,248,359,233.3,362Z"/><path class="cls-8" d="M252.34,370.44c-11.09,2.7-22.24,5.09-33.52,6.93A207.77,207.77,0,0,1,252.34,370.44Z"/><path class="cls-9" d="M2.84,260.52s-15.13-58.83,24.49-82.64c0,0,26.66-27.31,34.58-39.22,0,0-11.52,35-38.9,60.93,0,0-22.33,30.82-14.41,74.24"/><path class="cls-5" d="M65.68,126.69c-4.87,6.91-15.33,16.58-18.39,14.54s2.42-15,7.28-21.93S72.2,99.46,75.26,101.5,70.54,119.78,65.68,126.69Z"/><path class="cls-9" d="M65.16,126.07c-4.29,6.11-13.54,14.65-16.24,12.85s2.14-13.27,6.43-19.38S70.93,102,73.64,103.81,69.46,120,65.16,126.07Z"/><path class="cls-5" d="M74.72,188.5c-8.09,2.86-22.39,4.79-23.65,1.39s11-10.82,19.07-13.68,26.22-6.13,27.49-2.74S82.82,185.65,74.72,188.5Z"/><path class="cls-9" d="M74.68,187.71c-7.15,2.52-19.78,4.23-20.9,1.23s9.69-9.57,16.85-12.09,23.17-5.42,24.29-2.42S81.83,185.19,74.68,187.71Z"/><ellipse class="cls-5" cx="86.77" cy="147.81" rx="6.48" ry="6.3"/><ellipse class="cls-10" cx="86.77" cy="147.81" rx="5.25" ry="5.1"/><path class="cls-9" d="M448.73,256.32s15.13-58.83-24.5-82.64c0,0-26.65-27.31-34.58-39.22,0,0,11.53,35,38.91,60.93,0,0,22.33,30.81,14.4,74.23"/><path class="cls-5" d="M385.89,122.49c4.86,6.91,15.32,16.58,18.39,14.54s-2.43-15-7.29-21.93S379.37,95.26,376.3,97.3,381,115.58,385.89,122.49Z"/><path class="cls-9" d="M386.4,121.87c4.3,6.1,13.54,14.65,16.25,12.84s-2.14-13.26-6.44-19.37-15.57-17.53-18.28-15.73S382.1,115.77,386.4,121.87Z"/><path class="cls-5" d="M376.84,184.3c8.09,2.86,22.39,4.79,23.66,1.39s-11-10.82-19.07-13.68-26.22-6.14-27.49-2.74S368.74,181.45,376.84,184.3Z"/><path class="cls-9" d="M376.88,183.51c7.16,2.52,19.79,4.23,20.91,1.23s-9.7-9.57-16.85-12.09-23.17-5.43-24.29-2.43S369.73,181,376.88,183.51Z"/><ellipse class="cls-5" cx="364.8" cy="143.61" rx="6.48" ry="6.3"/><ellipse class="cls-10" cx="364.8" cy="143.61" rx="5.25" ry="5.1"/><path class="cls-5" d="M225.79,12.86a23.66,23.66,0,0,0-2.38-.08,23.26,23.26,0,0,0-2.34.08c-55.28,1.26-99.94,47-99.94,103.12s44.66,101.85,99.94,103.07a23.26,23.26,0,0,0,2.34.08,23.66,23.66,0,0,0,2.38-.08c55.32-1.22,99.93-47,99.93-103.07S281.11,14.12,225.79,12.86Zm27.83,193.79s0,0,0,0a94.57,94.57,0,0,1-26.33,4.91c-.64,0-1.25,0-1.9,0h-1.94c-.65,0-1.3,0-1.9,0s-1.3,0-1.91,0a94.3,94.3,0,0,1-26.32-4.91s0,0,0,0a95.58,95.58,0,0,1-64.32-86.93c0-1.22-.09-2.52-.09-3.74s0-2.48.09-3.74A95.58,95.58,0,0,1,193.24,25.3s0,0,0,0a92.54,92.54,0,0,1,26.32-4.92c1.26,0,2.55-.08,3.81-.08.69,0,1.29,0,1.94,0s1.3,0,1.9,0a92.81,92.81,0,0,1,26.33,4.92s0,0,0,0A95.64,95.64,0,0,1,318,112.24c0,1.26.08,2.48.08,3.74s0,2.52-.08,3.74A95.64,95.64,0,0,1,253.62,206.65Z"/><path class="cls-5" d="M286.69,112.24c-.86-37.52-14-70-33.07-86.94,0,0,0,0,0,0-8.34-7.4-17.81-11.81-27.79-12.4a23.66,23.66,0,0,0-2.38-.08,23.26,23.26,0,0,0-2.34.08c-10,.59-19.49,5-27.79,12.4,0,0,0,0,0,0-19.07,17-32.21,49.42-33.07,86.94,0,1.26,0,2.48,0,3.74s0,2.52,0,3.74c.86,37.52,14,70,33.07,86.93,0,0,0,0,0,0,8.3,7.35,17.81,11.76,27.79,12.35a23.26,23.26,0,0,0,2.34.08,23.66,23.66,0,0,0,2.38-.08c10-.59,19.45-5,27.79-12.35,0,0,0,0,0,0,19.07-17,32.21-49.41,33.07-86.93,0-1.22,0-2.48,0-3.74S286.73,113.5,286.69,112.24Zm-59.44,99.2c-.64.09-1.25.13-1.9.21h-1.94c-.65,0-1.3,0-1.9,0a13.13,13.13,0,0,1-1.91-.21c-28.18-3.28-50.66-42.81-51.74-91.68,0-1.22,0-2.52,0-3.74s0-2.48,0-3.74c1.08-48.87,23.56-88.45,51.74-91.73a28.24,28.24,0,0,1,3.81-.25c.69,0,1.29,0,1.94,0s1.26.13,1.9.17c28.23,3.32,50.67,42.9,51.75,91.77,0,1.26,0,2.48,0,3.74s0,2.52,0,3.74C277.92,168.59,255.48,208.12,227.25,211.44Z"/><rect class="cls-5" x="219.59" y="19.33" width="7.67" height="193.28"/><path class="cls-5" d="M167.88,112.26c-.08,1.23-.08,2.46-.08,3.72s0,2.5.08,3.73H124v-7.45Z"/><rect class="cls-5" x="219.59" y="112.26" width="7.67" height="7.46"/><path class="cls-5" d="M322.86,112.26v7.45H279c.07-1.23.07-2.49.07-3.73s0-2.49-.07-3.72Z"/><path class="cls-5" d="M227.77,115l-.52.34-.3.17a1.18,1.18,0,0,0,.3,0h.26l-.26.51.83-.55c6.39-.5,38.38-4.45,46.33-30.38C246.4,82.11,230.63,109.46,227.77,115Zm2.9-1.3-.74.5s.09-.17.22-.46a4,4,0,0,1-.47,0l.69-.46c2.59-4.92,16.51-29.12,41.36-26.51C264.65,109.76,236.33,113.25,230.67,113.71Z"/><path class="cls-5" d="M219.6,115.52l-.82-.51c-2.89-5.55-18.63-32.9-46.68-30,8,25.93,39.94,29.88,46.34,30.38l.82.55a5.1,5.1,0,0,1-.22-.51A4.4,4.4,0,0,0,219.6,115.52Zm-3-1.31-.69-.5c-5.71-.46-34-3.95-41.07-26.89,24.81-2.61,38.78,21.59,41.33,26.51l.73.46a5.18,5.18,0,0,1-.52,0A2.33,2.33,0,0,1,216.58,114.21Z"/><path class="cls-5" d="M227.25,80.93a5,5,0,0,1-.25.47l-.65.42a3,3,0,0,0,.43,0,2.3,2.3,0,0,0-.17.42l.64-.46c5.36-.42,31.91-3.7,38.52-25.25C243.16,54.13,230.19,75.43,227.25,80.93Zm1.52-.16-.61.37s.05-.12.18-.37a3.2,3.2,0,0,1-.44,0l.65-.38c2.21-4.24,14.22-25.17,35.66-22.9C258.12,77.32,233.7,80.35,228.77,80.77Z"/><path class="cls-5" d="M220.21,81.82l-.61-.38,0,0C217.14,76.77,204,54,180.74,56.48c6.62,21.55,33.2,24.83,38.52,25.25l.34.25.35.21s-.09-.16-.22-.42A3.37,3.37,0,0,0,220.21,81.82Zm-1.82-.68-.65-.37c-4.88-.42-29.3-3.45-35.4-23.24,21.44-2.27,33.46,18.66,35.66,22.9l.61.38a2.89,2.89,0,0,1-.39,0A1.87,1.87,0,0,0,218.39,81.14Z"/><ellipse class="cls-5" cx="37.57" cy="257.23" rx="7.38" ry="7.17"/><ellipse class="cls-5" cx="129.42" cy="280.67" rx="8" ry="7.78"/><ellipse class="cls-5" cx="220.7" cy="272.28" rx="8.63" ry="8.39"/><ellipse class="cls-5" cx="313.11" cy="242.69" rx="9.25" ry="9"/><ellipse class="cls-5" cx="404.94" cy="219.13" rx="9.88" ry="9.6"/></g></g></svg>